<svg width="1440" height="1440" viewBox="0 0 1440 1440" fill="none" xmlns="http://www.w3.org/2000/svg">
<circle cx="720" cy="720" r="720" fill="url(#paint0_linear_519_7133)"/>
<circle cx="720" cy="720" r="684" fill="#08090B"/>
<circle cx="720" cy="720" r="666" fill="#131D1F"/>
<path d="M628.523 855.27C611.446 855.27 596.787 854.772 584.548 853.775C572.452 852.779 561.352 851.143 551.247 848.866L556.371 807.88C571.313 810.157 584.477 811.864 595.862 813.003C607.39 814.141 618.277 814.711 628.523 814.711C651.435 814.711 668.015 812.505 678.261 808.093C688.65 803.539 693.844 796.352 693.844 786.533C693.844 779.702 691.994 774.65 688.294 771.376C684.736 767.961 679.186 765.328 671.644 763.478L619.557 750.243C597.214 744.55 580.777 737.506 570.246 729.11C559.857 720.713 554.663 707.976 554.663 690.899C554.663 666.136 564.127 648.205 583.054 637.105C602.124 626.004 632.792 620.454 675.059 620.454C686.017 620.454 696.193 620.81 705.585 621.521C715.12 622.091 724.869 623.158 734.83 624.723L730.134 664.002C718.607 662.863 708.431 662.08 699.608 661.653C690.785 661.227 682.175 661.013 673.778 661.013C648.447 661.013 630.088 663.219 618.703 667.631C607.318 671.9 601.626 678.944 601.626 688.764C601.626 695.31 603.974 700.078 608.67 703.066C613.367 705.913 620.554 708.545 630.231 710.965L672.071 721.211C695.837 726.904 713.199 734.517 724.157 744.052C735.257 753.587 740.808 767.463 740.808 785.679C740.808 810.014 731.913 827.732 714.124 838.833C696.335 849.791 667.801 855.27 628.523 855.27Z" fill="#00E404"/>
<path d="M894.505 851V637.531H939.76V851H894.505ZM935.491 851V811.295H1009.35V851H935.491ZM821.072 664.429V624.723H939.76V664.429H821.072ZM915.638 588.861C906.957 588.861 899.486 585.801 893.224 579.681C887.105 573.42 884.045 565.948 884.045 557.267C884.045 548.444 887.105 540.972 893.224 534.853C899.486 528.734 906.957 525.674 915.638 525.674C924.462 525.674 931.933 528.734 938.053 534.853C944.172 540.972 947.232 548.444 947.232 557.267C947.232 565.948 944.172 573.42 938.053 579.681C931.933 585.801 924.462 588.861 915.638 588.861Z" fill="#00E404"/>
<path d="M412.812 620.472C414.323 620.457 415.85 620.448 417.392 620.448C428.35 620.448 438.525 620.804 447.918 621.516C457.453 622.085 467.201 623.152 477.163 624.718L472.467 663.996C460.939 662.858 450.764 662.074 441.94 661.647C433.117 661.221 424.508 661.008 416.111 661.008C390.78 661.008 372.421 663.213 361.036 667.625C349.651 671.894 343.959 678.939 343.959 688.759C343.959 695.305 346.307 700.072 351.003 703.061C355.699 705.907 362.886 708.54 372.563 710.959L414.403 721.206C438.169 726.899 455.531 734.512 466.489 744.047C477.59 753.582 483.141 767.457 483.141 785.673C483.141 810.008 474.246 827.727 456.457 838.827C445.78 845.404 431.231 850.006 412.812 852.636V910.61H365.119V855.243C350.473 855.143 337.727 854.652 326.881 853.77C314.784 852.773 303.684 851.137 293.58 848.86L298.703 807.874C313.646 810.151 326.81 811.859 338.195 812.997C349.722 814.136 360.609 814.705 370.855 814.705C393.768 814.705 410.347 812.499 420.594 808.088C430.982 803.534 436.177 796.347 436.177 786.527C436.177 779.696 434.327 774.644 430.627 771.371C427.069 767.956 421.519 765.323 413.977 763.473L361.89 750.237C339.547 744.545 323.11 737.501 312.579 729.104C302.19 720.708 296.995 707.971 296.995 690.894C296.995 666.131 306.459 648.199 325.387 637.099C335.42 631.258 348.664 626.956 365.119 624.188V564.838H412.812V620.472Z" fill="#00E404"/>
<rect x="1088.46" y="525.924" width="57.96" height="385.02" fill="#088819"/>
<defs>
<linearGradient id="paint0_linear_519_7133" x1="720" y1="0" x2="720" y2="1440" gradientUnits="userSpaceOnUse">
<stop stop-color="#CBDFE6"/>
<stop offset="1" stop-color="#686868"/>
</linearGradient>
</defs>
</svg>
