<svg width="131" height="40" viewBox="0 0 131 40" fill="none" xmlns="http://www.w3.org/2000/svg">
<circle cx="20" cy="20" r="20" fill="url(#paint0_linear_1187_12782)"/>
<circle cx="20" cy="20" r="19.0909" fill="#08090B"/>
<circle cx="19.5455" cy="20.4546" r="18.6364" fill="#131D1F"/>
<path d="M17.4589 23.7575C16.9845 23.7575 16.5773 23.7437 16.2373 23.716C15.9013 23.6883 15.593 23.6428 15.3123 23.5796L15.4546 22.4411C15.8697 22.5043 16.2354 22.5518 16.5516 22.5834C16.8718 22.615 17.1742 22.6308 17.4589 22.6308C18.0953 22.6308 18.5559 22.5696 18.8405 22.447C19.1291 22.3205 19.2733 22.1209 19.2733 21.8481C19.2733 21.6584 19.222 21.518 19.1192 21.4271C19.0203 21.3322 18.8662 21.2591 18.6567 21.2077L17.2098 20.8401C16.5892 20.682 16.1326 20.4863 15.8401 20.253C15.5515 20.0198 15.4072 19.666 15.4072 19.1916C15.4072 18.5038 15.6701 18.0057 16.1958 17.6973C16.7256 17.389 17.5775 17.2348 18.7515 17.2348C19.0559 17.2348 19.3386 17.2447 19.5995 17.2645C19.8643 17.2803 20.1351 17.3099 20.4118 17.3534L20.2814 18.4445C19.9612 18.4129 19.6785 18.3911 19.4334 18.3793C19.1884 18.3674 18.9492 18.3615 18.716 18.3615C18.0123 18.3615 17.5023 18.4227 17.1861 18.5453C16.8698 18.6639 16.7117 18.8596 16.7117 19.1323C16.7117 19.3142 16.7769 19.4466 16.9074 19.5296C17.0379 19.6087 17.2375 19.6818 17.5063 19.749L18.6685 20.0336C19.3287 20.1918 19.811 20.4033 20.1154 20.6681C20.4237 20.933 20.5779 21.3184 20.5779 21.8244C20.5779 22.5004 20.3308 22.9926 19.8367 23.3009C19.3425 23.6053 18.5499 23.7575 17.4589 23.7575Z" fill="#00E404"/>
<path d="M24.8473 23.6389V17.7092H26.1043V23.6389H24.8473ZM25.9858 23.6389V22.536H28.0374V23.6389H25.9858ZM22.8074 18.4563V17.3534H26.1043V18.4563H22.8074ZM25.4343 16.3572C25.1932 16.3572 24.9856 16.2722 24.8117 16.1023C24.6417 15.9283 24.5567 15.7208 24.5567 15.4796C24.5567 15.2346 24.6417 15.027 24.8117 14.857C24.9856 14.687 25.1932 14.6021 25.4343 14.6021C25.6794 14.6021 25.8869 14.687 26.0569 14.857C26.2269 15.027 26.3119 15.2346 26.3119 15.4796C26.3119 15.7208 26.2269 15.9283 26.0569 16.1023C25.8869 16.2722 25.6794 16.3572 25.4343 16.3572Z" fill="#00E404"/>
<path d="M11.4665 17.2365C11.5087 17.236 11.5515 17.2345 11.5945 17.2345C11.8987 17.2345 12.1813 17.245 12.4421 17.2648C12.707 17.2806 12.9779 17.3102 13.2546 17.3536L13.1237 18.4445C12.8037 18.4128 12.5211 18.3909 12.2761 18.379C12.031 18.3672 11.7915 18.3615 11.5583 18.3615C10.855 18.3615 10.3452 18.4226 10.029 18.545C9.71285 18.6636 9.55449 18.8593 9.55441 19.132C9.55441 19.3137 9.61944 19.4464 9.74973 19.5294C9.88018 19.6085 10.0805 19.6819 10.3493 19.7491L11.5114 20.0333C12.1714 20.1914 12.6534 20.4033 12.9577 20.6681C13.2661 20.933 13.4206 21.3183 13.4206 21.8243C13.4206 22.5003 13.1735 22.9926 12.6794 23.3009C12.3828 23.4836 11.9783 23.6097 11.4665 23.6827V25.295H10.1423V23.754C9.73542 23.7512 9.38111 23.7405 9.0798 23.7159C8.74386 23.6883 8.43562 23.6425 8.155 23.5792L8.29758 22.4406C8.71255 22.5038 9.07807 22.5515 9.39426 22.5831C9.71444 22.6148 10.0169 22.631 10.3015 22.631C10.9379 22.631 11.3987 22.569 11.6833 22.4464C11.9717 22.3199 12.1159 22.1204 12.1159 21.8478C12.1159 21.6581 12.0644 21.5178 11.9616 21.4269C11.8629 21.3321 11.709 21.2585 11.4997 21.2072L10.0525 20.84C9.43182 20.6818 8.97487 20.4863 8.68234 20.2531C8.39387 20.0198 8.24974 19.6658 8.24973 19.1915C8.24973 18.5037 8.51302 18.0057 9.03879 17.6974C9.31746 17.5352 9.68535 17.4168 10.1423 17.34V15.6896H11.4665V17.2365Z" fill="#00E404"/>
<rect x="30.2351" y="14.6091" width="1.61" height="10.695" fill="#088819"/>
<path d="M55.6364 17.3634H53.4546V16.2725H52.3637V15.1816H48.0001V16.2725H46.9091V18.4543H48.0001V19.5452H53.4546V20.6361H54.5455V21.727H55.6364V26.0906H54.5455V27.1816H53.4546V28.2725H46.9091V27.1816H45.8182V26.0906H44.7273V23.9088H46.9091V24.9997H48.0001V26.0906H52.3637V24.9997H53.4546V22.8179H52.3637V21.727H46.9091V20.6361H45.8182V19.5452H44.7273V15.1816H45.8182V14.0906H46.9091V12.9997H53.4546V14.0906H54.5455V15.1816H55.6364V17.3634ZM69.8097 17.3634H67.6279V16.2725H66.537V15.1816H62.1733V16.2725H61.0824V18.4543H62.1733V19.5452H67.6279V20.6361H68.7188V21.727H69.8097V26.0906H68.7188V27.1816H67.6279V28.2725H61.0824V27.1816H59.9915V26.0906H58.9006V23.9088H61.0824V24.9997H62.1733V26.0906H66.537V24.9997H67.6279V22.8179H66.537V21.727H61.0824V20.6361H59.9915V19.5452H58.9006V15.1816H59.9915V14.0906H61.0824V12.9997H67.6279V14.0906H68.7188V15.1816H69.8097V17.3634ZM73.0739 28.2725V26.0906H75.2557V15.1816H73.0739V12.9997H79.6194V15.1816H77.4375V26.0906H79.6194V28.2725H73.0739ZM83.9915 26.0906H86.1733V28.2725H83.9915V26.0906ZM91.6279 15.1816V19.5452H98.1733V21.727H91.6279V28.2725H89.4461V12.9997H98.1733V15.1816H91.6279ZM101.446 26.0906V12.9997H103.628V24.9997H104.719V26.0906H109.082V24.9997H110.173V12.9997H112.355V26.0906H111.264V27.1816H110.173V28.2725H103.628V27.1816H102.537V26.0906H101.446ZM126.528 12.9997H128.71V28.2725H126.528V24.9997H125.438V23.9088H124.347V22.8179H123.256V21.727H122.165V20.6361H121.074V19.5452H119.983V18.4543H118.892V17.3634H117.801V28.2725H115.619V12.9997H117.801V14.0906H118.892V15.1816H119.983V16.2725H121.074V17.3634H122.165V18.4543H123.256V19.5452H124.347V20.6361H125.438V21.727H126.528V12.9997Z" fill="black"/>
<defs>
<linearGradient id="paint0_linear_1187_12782" x1="20" y1="0" x2="20" y2="40" gradientUnits="userSpaceOnUse">
<stop stop-color="#CBDFE6"/>
<stop offset="1" stop-color="#686868"/>
</linearGradient>
</defs>
</svg>
